<svg id="Capa_1" enable-background="new 0 0 512 512" height="512" viewBox="0 0 512 512" width="512" xmlns="http://www.w3.org/2000/svg"><path d="m256 22c-135.31 0-245 109.69-245 245 0 80.418 38.747 151.785 98.588 196.455h292.824c59.841-44.67 98.588-116.037 98.588-196.455 0-135.31-109.69-245-245-245z" fill="#ffcb37"/><path d="m511.338 199.976c-9.585-25.299-36.562-94.662-58.964-134.685-5.344-9.547-13.826-16.943-24.012-20.936l-99.405-38.956-1.457-.638c-1.846-.808-3.732-1.511-5.645-2.116-7.217 29.69-33.946 51.745-65.855 51.745-31.91 0-58.638-22.055-65.854-51.745-1.914.605-3.799 1.308-5.645 2.116l-1.458.638-99.406 38.956c-10.187 3.993-18.668 11.389-24.012 20.936-22.402 40.023-49.379 109.386-58.963 134.685-2 5.279.688 11.17 5.982 13.129l74.682 27.632c5.271 1.95 11.125-.747 13.067-6.021l10.52-28.562c.876-2.379 4.352-2.042 4.743.463 4.526 29.019 6.734 59.993 7.338 91.211s8.284 122.583-8.731 164.628c41.072 31.094 92.249 49.544 147.737 49.544s106.665-18.45 147.737-49.545c-8.441-74.836-14.273-173.253-1.393-255.839.391-2.505 3.867-2.842 4.743-.463l10.52 28.562c1.943 5.274 7.796 7.971 13.067 6.021l74.682-27.632c5.295-1.958 7.982-7.849 5.982-13.128z" fill="#f9f1ef"/><path d="m184.501 4.761-1.458.638-99.406 38.956c-10.187 3.993-18.668 11.389-24.012 20.936-22.402 40.023-49.379 109.386-58.963 134.685-2 5.279.688 11.17 5.982 13.129l45.799 16.945c-5.859-12.642 1.145-23.3 1.145-23.3s20.327-42 41.291-90.285 123.044-48.94 123.044-48.94l13.99-17.557-.714-49.968c-7.979 0-15.954 0-23.936 0-7.834 0-15.584 1.621-22.762 4.761z" fill="#eae0dc"/><path d="m437.082 71.841-78.601-31.17-241.488 257.156c1.114 57.627-3.256 116.088-8.731 164.628.479.362.965.714 1.447 1.073l302.749-322.393c5.081-24.066 13.357-47.372 24.624-69.294z" fill="#e33357"/><path d="m359.304 166.882s-21.556-56.632-37.556-59.623-9.888-16.942-9.888-16.942l-194.866 207.51c1.114 57.627-3.256 116.088-8.731 164.628.479.362.965.714 1.447 1.073l255.537-272.117c-12.347-4.794-5.943-24.529-5.943-24.529z" fill="#ce2445"/><path d="m182.32 125.142h-12.884c-4.792 0-8.677-3.885-8.677-8.677s3.885-8.677 8.677-8.677h12.884c4.793 0 8.677 3.885 8.677 8.677s-3.884 8.677-8.677 8.677z" fill="#e33357"/><path d="m428.363 44.355-92.241-36.148c-1.184 7.823-3.503 15.269-6.755 22.19l105.775 41.947c2.995-5.827 6.197-11.558 9.615-17.175-4.617-4.678-10.186-8.381-16.394-10.814z" fill="#eae0dc"/><path d="m175.878 8.207-92.24 36.148c-6.208 2.433-11.777 6.136-16.394 10.813 3.418 5.617 6.62 11.348 9.615 17.175l105.775-41.947c-3.253-6.92-5.572-14.366-6.756-22.189z" fill="#e0d3cd"/><path d="m505.356 213.105-74.682 27.632c-5.271 1.95-11.125-.747-13.067-6.021l-10.52-28.562c-.397-1.077-1.327-1.593-2.263-1.607v-6.95c0-50.365 13.886-99.618 39.932-142.428 2.959 2.998 5.531 6.393 7.618 10.122 22.402 40.023 49.379 109.386 58.964 134.685 2 5.279-.687 11.17-5.982 13.129z" fill="#f4ecea"/><path d="m410.221 143.543c-.026.128-.051.256-.077.384l-2.21 12.56c-2.057 13.546-3.109 27.286-3.109 41.11v6.95c.936.014 1.866.529 2.263 1.607l10.52 28.562c1.942 5.274 7.796 7.971 13.067 6.021l52.405-19.389c-51.599-4.594-72.627-77.001-72.859-77.805z" fill="#eae0dc"/><path d="m6.644 213.105 74.682 27.632c5.271 1.95 11.125-.747 13.067-6.021l10.52-28.562c.397-1.077 1.327-1.593 2.263-1.607v-6.95c0-50.365-13.886-99.618-39.932-142.428-2.959 2.998-5.531 6.393-7.618 10.122-22.403 40.023-49.38 109.386-58.964 134.685-2 5.279.687 11.17 5.982 13.129z" fill="#f4ecea"/><path d="m67.243 55.169c-2.959 2.998-5.531 6.393-7.618 10.122-22.402 40.023-49.379 109.386-58.963 134.685-2 5.279.687 11.17 5.982 13.129l45.8 16.945c-5.86-12.642 1.144-23.3 1.144-23.3s20.326-41.997 41.288-90.279c-6.641-21.416-15.898-42.014-27.633-61.302z" fill="#eae0dc"/><path d="m328.957 5.399-1.457-.638c-1.846-.808-3.732-1.511-5.645-2.116-7.217 29.69-33.946 51.745-65.855 51.745-31.91 0-58.638-22.055-65.854-51.745-1.914.605-3.799 1.308-5.645 2.116l-1.458.638-7.165 2.808c5.896 38.956 39.521 68.814 80.122 68.814s74.226-29.858 80.122-68.814z" fill="#e0d3cd"/><path d="m256 54.39c-8.487 0-16.602-1.573-24.088-4.422l-13.99 17.557c11.353 6.055 24.312 9.496 38.078 9.496s26.724-3.441 38.077-9.496l-13.99-17.557c-7.485 2.849-15.6 4.422-24.087 4.422z" fill="#e33357"/><path d="m322.087 2.717c-5.597-1.796-11.449-2.717-17.35-2.717-32.452 0-64.951 0-97.474 0-5.901 0-11.753.921-17.35 2.717 6.877 30.159 33.844 52.673 66.087 52.673s59.209-22.514 66.087-52.673z" fill="#3c3b6d"/><path d="m304.737 0c-11.577 0-23.165 0-34.753 0 10.224 6.007 17.093 17.112 17.093 29.827 0 8.025-2.741 15.405-7.328 21.272 21.12-7.907 37.244-26.041 42.339-48.382-5.598-1.796-11.45-2.717-17.351-2.717z" fill="#221d59"/><path d="m316.989 111.121c-.077.01-.136.072-.136.143v34.11c0 9.012 3.74 13.92 12.298 16.77 6.49 2.161 11.354 5.037 13.676 6.558.366.24.858.24 1.224 0 2.322-1.522 7.186-4.397 13.676-6.558 8.559-2.85 12.298-7.758 12.298-16.77v-34.11c0-.072-.058-.133-.136-.143-.077-.01-.154-.026-.228-.048-28.6-8.533-51.501-.102-52.672.048z" fill="#e33357"/><path d="m353.646 107.825c-3.379-.376-6.786-.565-10.207-.565s-6.828.189-10.207.565v55.846c4.448 1.848 7.79 3.849 9.595 5.032.366.24.858.24 1.224 0 1.805-1.183 5.148-3.185 9.595-5.032z" fill="#e8eaea"/><path d="m340.09 172.88c-2.12-1.39-6.565-4.016-12.516-5.998-10.721-3.569-15.714-10.404-15.714-21.507v-34.11c0-2.458 1.754-4.561 4.137-5.037 18.858-5.222 36.632-5.405 54.894.002 2.378.48 4.127 2.581 4.127 5.035v34.11c0 11.103-4.993 17.938-15.714 21.507-5.952 1.982-10.396 4.608-12.516 5.997-2.031 1.332-4.662 1.334-6.698.001zm-18.244-57.909v30.404c0 6.785 2.242 9.821 8.883 12.032 5.435 1.81 9.83 4.091 12.71 5.798 2.879-1.707 7.274-3.988 12.71-5.798 6.641-2.211 8.883-5.247 8.883-12.032v-30.407c-14.183-3.652-28.996-3.653-43.186.003zm49.229-8.687c.004.001.009.002.014.004-.005-.002-.01-.003-.014-.004zm-54.728-.114c-.066.008-.16.02-.279.044.092-.018.185-.032.279-.044z" fill="#ffcb37"/><path d="m353.675 158.293c-4.296 1.629-7.81 3.473-10.236 4.911-2.88-1.707-7.274-3.988-12.71-5.798-6.641-2.211-8.883-5.247-8.883-12.032v-30.404c3.779-.974 7.603-1.68 11.448-2.135-.006-.005-.013-.011-.02-.016-5.915-4.568-1.875-8.999-.994-9.851-5.362.652-10.776 1.734-16.284 3.259-2.383.476-4.137 2.579-4.137 5.037v34.11c0 11.103 4.993 17.938 15.714 21.507 5.951 1.982 10.396 4.608 12.516 5.998 2.036 1.333 4.666 1.331 6.697-.001 2.12-1.389 6.565-4.015 12.516-5.997-7.374-1.285-5.801-7.929-5.627-8.588z" fill="#ffaa39"/></svg>